<svg width="130" height="130" viewBox="0 0 130 130" fill="none" xmlns="http://www.w3.org/2000/svg">
<g clip-path="url(#clip0_9_7393)">
<mask id="mask0_9_7393" style="mask-type:luminance" maskUnits="userSpaceOnUse" x="0" y="0" width="130" height="130">
<path d="M0 0H130V130H0V0Z" fill="white"/>
</mask>
<g mask="url(#mask0_9_7393)">
<mask id="mask1_9_7393" style="mask-type:luminance" maskUnits="userSpaceOnUse" x="0" y="0" width="130" height="130">
<path d="M0 0H130V130H0V0Z" fill="white"/>
</mask>
<g mask="url(#mask1_9_7393)">
<path d="M97.2734 97.7822H35.6594V60.1487H67.9599C73.2204 60.1487 77.4862 55.8828 77.4862 50.6254V27.0894" stroke="#1E1E1E" stroke-width="4" stroke-linecap="round" stroke-linejoin="round"/>
<path d="M92.7288 37.774H61.4598C59.4439 37.774 57.7944 36.123 57.7944 34.105V20.0765C57.7944 18.0585 59.4439 16.4075 61.4598 16.4075H92.7288C94.7447 16.4075 96.3942 18.0585 96.3942 20.0765V34.105C96.3942 36.123 94.7447 37.774 92.7288 37.774Z" fill="#EC1313"/>
<g style="mix-blend-mode:multiply" opacity="0.5">
<path d="M65.1252 16.4075V37.774H61.4598C59.4439 37.774 57.7944 36.123 57.7944 34.105V20.0765C57.7944 18.0585 59.4439 16.4075 61.4598 16.4075H65.1252Z" fill="#EC1313"/>
</g>
<path d="M87.7688 27.0808H73.9265" stroke="#F0F6FF" stroke-width="4" stroke-linecap="round" stroke-linejoin="round"/>
<path d="M50.8309 70.5601H19.8818C17.8865 70.5601 16.2539 68.9275 16.2539 66.9322V53.0603C16.2539 51.0649 17.8865 49.4324 19.8818 49.4324H50.8309C52.8262 49.4324 54.4588 51.0649 54.4588 53.0603V66.9322C54.4588 68.9275 52.8262 70.5601 50.8309 70.5601Z" fill="#EC1313"/>
<g style="mix-blend-mode:multiply" opacity="0.5">
<path d="M23.5097 49.4324V70.5601H19.8818C17.8865 70.5601 16.2539 68.9275 16.2539 66.9322V53.0603C16.2539 51.0649 17.8865 49.4324 19.8818 49.4324H23.5097Z" fill="#EC1313"/>
</g>
<path d="M46.0479 59.8831H32.2056M24.6716 59.8831H24.6952" stroke="#F0F6FF" stroke-width="4" stroke-linecap="round" stroke-linejoin="round"/>
<path d="M50.5286 108.621H19.5796C17.5842 108.621 15.9517 106.988 15.9517 104.993V91.1208C15.9517 89.1255 17.5842 87.4929 19.5796 87.4929H50.5286C52.524 87.4929 54.1565 89.1255 54.1565 91.1208V104.993C54.1565 106.988 52.524 108.621 50.5286 108.621Z" fill="#EC1313"/>
<g style="mix-blend-mode:multiply" opacity="0.5">
<path d="M23.2075 87.4929V108.621H19.5796C17.5842 108.621 15.9517 106.988 15.9517 104.993V91.1208C15.9517 89.1255 17.5842 87.4929 19.5796 87.4929H23.2075Z" fill="#EC1313"/>
</g>
<path d="M45.7456 97.825H31.9033M24.3694 97.825H24.393" stroke="#F0F6FF" stroke-width="4" stroke-linecap="round" stroke-linejoin="round"/>
<path d="M80.8008 97.7811C80.8008 89.1104 87.8298 82.0813 96.5005 82.0813C105.171 82.0813 112.2 89.1104 112.2 97.7811C112.2 106.452 105.171 113.481 96.5005 113.481C87.8298 113.481 80.8008 106.452 80.8008 97.7811Z" fill="#FFEFEF"/>
<g style="mix-blend-mode:multiply" opacity="0.5">
<path d="M105.611 110.567C102.953 112.466 99.7669 113.485 96.5 113.48C87.8294 113.48 80.7991 106.453 80.7991 97.7823C80.7991 91.1532 84.9071 85.4834 90.7157 83.1821C86.7195 86.0261 84.1168 90.6949 84.1168 95.9729C84.1168 104.644 91.1468 111.671 99.8175 111.671C101.801 111.672 103.767 111.298 105.611 110.567Z" fill="#FFEFEF"/>
</g>
</g>
</g>
</g>
<defs>
<clipPath id="clip0_9_7393">
<rect width="130" height="130" fill="white"/>
</clipPath>
</defs>
</svg>
