<svg width="38" height="38" viewBox="0 0 38 38" fill="none" xmlns="http://www.w3.org/2000/svg">
<circle cx="19.3871" cy="18.8011" r="18.1136" fill="#0AD18C" stroke="#0AD18C"/>
<path fill-rule="evenodd" clip-rule="evenodd" d="M16.6825 17.0498C16.6825 15.853 17.9357 14.8828 19.4815 14.8828C21.0274 14.8828 22.2806 15.853 22.2806 17.0498L22.2806 21.1424L23.9939 19.8964C25.2441 18.9871 26.9947 19.2636 27.9039 20.5138C28.8131 21.764 28.5367 23.5145 27.2865 24.4238L21.1286 28.9022C20.1471 29.616 18.8175 29.616 17.836 28.9022L11.6781 24.4238C10.4279 23.5145 10.1515 21.764 11.0607 20.5138C11.97 19.2636 13.7205 18.9871 14.9707 19.8964L16.6825 21.1413L16.6825 17.0498Z" fill="white"/>
<path fill-rule="evenodd" clip-rule="evenodd" d="M20.0399 15.4436C18.494 15.4436 17.2408 16.4138 17.2408 17.6106L17.2408 21.7026L15.5291 20.4577C14.2789 19.5484 12.5283 19.8248 11.6191 21.075C10.8791 22.0925 10.9244 23.4414 11.6409 24.3984C10.4212 23.482 10.1588 21.7531 11.0593 20.5149C11.9685 19.2647 13.7191 18.9883 14.9693 19.8975L16.681 21.1424L16.681 17.0509C16.681 15.8541 17.9342 14.8839 19.48 14.8839C20.5453 14.8839 21.4716 15.3446 21.9446 16.0227C21.445 15.6634 20.7756 15.4436 20.0399 15.4436ZM22.8389 20.7364L22.8389 21.7037L24.5522 20.4577C25.5702 19.7173 26.9198 19.763 27.877 20.4804C26.9608 19.2597 25.231 18.9967 23.9924 19.8975L22.8389 20.7364Z" fill="#DADADA" fill-opacity="0.5"/>
<circle cx="19.4822" cy="10.9627" r="2.79904" transform="rotate(-180 19.4822 10.9627)" fill="white"/>
<path fill-rule="evenodd" clip-rule="evenodd" d="M20.0419 8.72355C18.496 8.72355 17.2429 9.97673 17.2429 11.5226C17.2429 12.1532 17.4514 12.7351 17.8033 13.2031C17.1231 12.6925 16.6831 11.8792 16.6831 10.9632C16.6831 9.41734 17.9362 8.16416 19.4821 8.16416C20.3973 8.16416 21.21 8.60345 21.7207 9.28268C21.253 8.93158 20.6718 8.72355 20.0419 8.72355Z" fill="#DADADA" fill-opacity="0.5"/>
</svg>
