<svg width="45" height="22" viewBox="0 0 45 22" fill="none" xmlns="http://www.w3.org/2000/svg">
<path d="M9.3644 1.28464C9.55077 1.2592 9.70994 1.21898 9.86911 1.21876C12.6415 1.21506 15.4139 1.21419 18.1865 1.21789C18.7545 1.21854 18.8162 1.30029 18.7492 1.88427C18.705 2.2704 18.6623 2.65675 18.6115 3.04179C18.5008 3.87971 18.4838 3.8945 17.6716 3.89493C15.9828 3.89602 14.294 3.89558 12.6052 3.89515C12.1971 3.89515 11.7862 3.92102 11.382 3.87928C11.1775 3.85819 10.911 3.76905 10.8003 3.6149C10.3177 2.94265 9.8808 2.23605 9.43155 1.5388C9.3967 1.48466 9.39564 1.40748 9.3644 1.28464Z" fill="#045172"/>
<path d="M22.1052 0.351704C27.4545 0.351704 32.8044 0.29909 38.1526 0.375185C40.636 0.410624 42.6017 1.58163 43.7199 3.9258C44.0162 4.54696 44.1297 5.31335 44.1379 6.01539C44.1792 9.44251 44.1617 12.8705 44.1547 16.2981C44.1503 18.4983 43.045 20.012 41.2457 21.0662C40.1861 21.6871 39.0452 21.9687 37.813 21.9672C27.2554 21.9544 16.6977 21.963 6.14008 21.957C4.15673 21.9559 2.66493 21.0184 1.62108 19.3262C1.05411 18.4072 0.914701 17.3551 0.909813 16.2963C0.89345 12.8688 0.897063 9.44099 0.9062 6.01343C0.912363 3.70099 1.8117 1.88536 3.90385 0.879372C4.58112 0.553684 5.3912 0.380186 6.14221 0.374316C11.4628 0.33192 16.784 0.351704 22.1052 0.351704ZM26.4166 11.156C26.4166 13.1149 26.4175 15.0738 26.4158 17.0327C26.4156 17.3658 26.4383 17.6623 26.838 17.7684C29.1546 18.3831 31.469 19.0051 33.783 19.6302C34.1326 19.7245 34.3175 19.5869 34.405 19.2473C34.527 18.774 34.676 18.3072 34.7825 17.8302C35.3613 15.2345 35.6144 12.6131 35.4716 9.94518C35.3494 7.66253 35.0215 5.42075 34.4552 3.21333C34.2988 2.60348 34.2191 2.56413 33.619 2.72415C31.4259 3.30943 29.2338 3.89863 27.0425 4.49043C26.4542 4.64914 26.4183 4.6985 26.4175 5.32226C26.4145 7.26683 26.4162 9.2114 26.4166 11.156ZM6.61292 2.81785C6.61292 8.52262 6.61292 14.1215 6.61292 19.7511C6.72066 19.7239 6.78122 19.7239 6.82394 19.6956C7.68545 19.1227 8.55588 18.5622 9.39529 17.9569C9.55574 17.8413 9.67283 17.5456 9.67368 17.3323C9.69004 13.3279 9.68452 9.32337 9.68771 5.319C9.68792 4.9844 9.55914 4.74937 9.28458 4.56653C8.52932 4.06364 7.78426 3.54511 7.03262 3.03679C6.93147 2.96852 6.81565 2.92265 6.61292 2.81785ZM9.36448 1.28464C9.39551 1.40769 9.39657 1.48466 9.43163 1.53901C9.88088 2.23605 10.3178 2.94287 10.8004 3.61512C10.9111 3.76948 11.1776 3.8584 11.382 3.87949C11.7862 3.92102 12.197 3.89515 12.6052 3.89536C14.294 3.8958 15.9829 3.89623 17.6717 3.89515C18.4839 3.89471 18.5009 3.87971 18.6116 3.04201C18.6624 2.65675 18.7053 2.27062 18.7493 1.88449C18.816 1.30051 18.7546 1.21898 18.1866 1.21811C15.4142 1.21441 12.6418 1.21528 9.86919 1.21898C9.71002 1.21898 9.55085 1.2592 9.36448 1.28464ZM9.60419 21.0432C9.83837 21.0656 9.99882 21.0934 10.159 21.094C11.1147 21.0984 12.0706 21.0964 13.0262 21.0964C14.755 21.0962 16.4837 21.0988 18.2123 21.0934C18.7431 21.0916 18.8037 21.0164 18.7444 20.4855C18.6919 20.0141 18.6158 19.5452 18.5748 19.0729C18.5391 18.6622 18.3385 18.4992 17.9426 18.5007C15.8626 18.5081 13.7825 18.5079 11.7025 18.5005C11.3397 18.4992 11.0975 18.6498 10.9062 18.9588C10.5605 19.5176 10.1909 20.0607 9.83519 20.6131C9.76187 20.7273 9.70577 20.8529 9.60419 21.0432ZM30.8521 21.0753C30.8544 21.0403 30.857 21.0053 30.8593 20.9703C30.7601 20.9223 30.6636 20.8668 30.5612 20.8271C28.852 20.1635 27.1438 19.4976 25.431 18.8438C25.0776 18.709 24.7095 18.5388 24.3438 18.527C23.0794 18.4866 21.813 18.509 20.5473 18.5072C20.2046 18.5068 20.0588 18.6918 20.0962 19.0288C20.1453 19.4719 20.2063 19.9135 20.2613 20.3559C20.3465 21.0416 20.4018 21.0953 21.0807 21.0958C24.1887 21.0971 27.2968 21.0966 30.4048 21.0956C30.554 21.0953 30.7031 21.0823 30.8521 21.0753ZM30.6375 1.35682C30.6309 1.31942 30.6243 1.28203 30.6179 1.24441C30.4585 1.23463 30.2989 1.2168 30.1396 1.21658C28.7051 1.21441 27.2707 1.21506 25.8363 1.21528C24.205 1.2155 22.5736 1.22441 20.9424 1.2105C20.5242 1.20702 20.3185 1.36921 20.2796 1.79643C20.2339 2.29758 20.1523 2.79502 20.1026 3.29595C20.0577 3.74796 20.1676 3.88515 20.6028 3.88884C21.6855 3.89797 22.7685 3.8995 23.851 3.8821C24.0835 3.87841 24.324 3.80709 24.5446 3.72274C26.3884 3.01679 28.2285 2.30084 30.0692 1.58706C30.2598 1.51336 30.4481 1.43378 30.6375 1.35682Z" fill="#EDAD49"/>
<path d="M26.4164 11.156C26.4162 9.2114 26.4145 7.26683 26.4172 5.32248C26.4181 4.69871 26.454 4.64936 27.0422 4.49065C29.2336 3.89884 31.4256 3.30964 33.6187 2.72436C34.2189 2.56413 34.2983 2.6037 34.455 3.21355C35.0213 5.42097 35.3492 7.66274 35.4714 9.94539C35.6142 12.6133 35.3611 15.2347 34.7822 17.8304C34.676 18.3072 34.527 18.774 34.4048 19.2475C34.3172 19.5871 34.1324 19.7248 33.7828 19.6304C31.469 19.0053 29.1543 18.3833 26.8378 17.7687C26.4381 17.6626 26.4153 17.366 26.4155 17.0329C26.4174 15.0738 26.4166 13.1149 26.4164 11.156Z" fill="#045172"/>
<path d="M6.61283 2.81787C6.81578 2.92267 6.93138 2.96832 7.03253 3.03681C7.78418 3.54513 8.52945 4.06366 9.28449 4.56655C9.55905 4.74939 9.68783 4.98464 9.68762 5.31902C9.68443 9.32338 9.68975 13.328 9.6736 17.3323C9.67275 17.5456 9.55565 17.8411 9.39521 17.957C8.5558 18.5625 7.68536 19.1227 6.82385 19.6956C6.78114 19.7239 6.72057 19.7239 6.61283 19.7511C6.61283 14.1215 6.61283 8.52286 6.61283 2.81787Z" fill="#045172"/>
<path d="M9.60413 21.0432C9.70571 20.853 9.76181 20.7273 9.83534 20.6132C10.1911 20.061 10.5606 19.5176 10.9064 18.9589C11.0974 18.6499 11.3397 18.4993 11.7027 18.5006C13.7827 18.5079 15.8627 18.5082 17.9428 18.5008C18.3387 18.4995 18.5393 18.6625 18.575 19.073C18.6162 19.5452 18.6921 20.0142 18.7446 20.4856C18.8036 21.0165 18.7431 21.0917 18.2124 21.0935C16.4837 21.0989 14.7549 21.0963 13.0264 21.0965C12.0707 21.0967 11.1149 21.0985 10.1592 21.0941C9.99876 21.0935 9.83853 21.0656 9.60413 21.0432Z" fill="#045172"/>
<path d="M30.8521 21.0753C30.7031 21.0823 30.5539 21.0953 30.4049 21.0956C27.297 21.0966 24.1888 21.0971 21.0809 21.0958C20.4019 21.0956 20.3467 21.0419 20.2615 20.3559C20.2064 19.9135 20.1454 19.4719 20.0963 19.0288C20.0589 18.692 20.2047 18.5068 20.5475 18.5072C21.8132 18.5087 23.0795 18.4866 24.344 18.527C24.7097 18.5387 25.0778 18.709 25.4312 18.8438C27.144 19.4975 28.8521 20.1635 30.5613 20.827C30.6638 20.8668 30.7603 20.9223 30.8595 20.9703C30.8569 21.0053 30.8544 21.0403 30.8521 21.0753Z" fill="#045172"/>
<path d="M30.6375 1.35689C30.4481 1.43386 30.2598 1.51343 30.0694 1.58714C28.2287 2.30091 26.3885 3.01686 24.5448 3.72281C24.3242 3.80739 24.0837 3.87848 23.8512 3.88218C22.7687 3.89979 21.6857 3.89827 20.603 3.88892C20.1678 3.88522 20.0579 3.74803 20.1027 3.29602C20.1525 2.79532 20.2341 2.29765 20.2798 1.79651C20.3187 1.36907 20.5244 1.20688 20.9426 1.21057C22.5738 1.22449 24.205 1.21557 25.8364 1.21535C27.2709 1.21514 28.7053 1.21449 30.1398 1.21666C30.2991 1.21688 30.4587 1.23492 30.6181 1.24449C30.6245 1.2821 30.6309 1.3195 30.6375 1.35689Z" fill="#045172"/>
</svg>
