<svg width="15" height="15" viewBox="0 0 15 15" fill="none" xmlns="http://www.w3.org/2000/svg">
<path d="M12.9418 2.05806C13.1859 2.30214 13.1859 2.69786 12.9418 2.94194L2.94179 12.9419C2.69771 13.186 2.30198 13.186 2.05791 12.9419C1.81383 12.6979 1.81383 12.3021 2.05791 12.0581L12.0579 2.05806C12.302 1.81398 12.6977 1.81398 12.9418 2.05806Z" fill="#667185"/>
<path d="M9.87454 3.35753C9.17061 3.02602 8.3769 2.8125 7.49984 2.8125C5.65978 2.8125 4.18658 3.75231 3.13959 4.7498C2.0902 5.74958 1.40929 6.8623 1.13975 7.34363C0.963108 7.65906 0.94207 8.03569 1.08706 8.37023C1.18832 8.60386 1.36052 8.96578 1.61434 9.38576C1.79287 9.68118 2.17708 9.77594 2.47251 9.59741C2.76793 9.41888 2.86268 9.03466 2.68415 8.73924C2.48001 8.40144 2.33835 8.10931 2.25243 7.91527C2.50603 7.46833 3.10662 6.5077 4.00183 5.65481C4.9265 4.77385 6.10612 4.0625 7.49984 4.0625C8.00112 4.0625 8.47471 4.15452 8.9187 4.31337L9.87454 3.35753Z" fill="#667185"/>
<path d="M11.0564 5.71118C11.9193 6.54966 12.4992 7.47815 12.7472 7.91527C12.6613 8.10931 12.5197 8.40144 12.3155 8.73924C12.137 9.03466 12.2317 9.41888 12.5272 9.59741C12.8226 9.77594 13.2068 9.68118 13.3853 9.38576C13.6391 8.96578 13.8114 8.60386 13.9126 8.37023C14.0576 8.03569 14.0366 7.65905 13.8599 7.34363C13.5973 6.87469 12.9443 5.80645 11.9404 4.82722L11.0564 5.71118Z" fill="#667185"/>
<path d="M7.49985 5C7.72698 5 7.94846 5.02423 8.16183 5.07025L6.87569 6.35639C6.34225 6.54465 5.9195 6.96741 5.73124 7.50084L4.4451 8.78698C4.39908 8.57361 4.37485 8.35213 4.37485 8.125C4.37485 6.39911 5.77396 5 7.49985 5Z" fill="#667185"/>
<path d="M7.49985 10C7.28055 10 7.07005 9.96235 6.87445 9.89317L5.93629 10.8313C6.39618 11.0976 6.93021 11.25 7.49985 11.25C9.22574 11.25 10.6248 9.85089 10.6248 8.125C10.6248 7.55537 10.4724 7.02133 10.2062 6.56145L9.26801 7.4996C9.3372 7.6952 9.37485 7.9057 9.37485 8.125C9.37485 9.16053 8.53538 10 7.49985 10Z" fill="#667185"/>
</svg>
