<svg width="20" height="20" viewBox="0 0 20 20" fill="none" xmlns="http://www.w3.org/2000/svg">
<path d="M6.25 2.5C6.48012 2.5 6.66667 2.68655 6.66667 2.91667C6.66667 3.14679 6.48012 3.33333 6.25 3.33333H4.58333C3.89298 3.33333 3.33333 3.89298 3.33333 4.58333V6.27594C3.33333 6.50606 3.14679 6.69261 2.91667 6.69261C2.68655 6.69261 2.5 6.50606 2.5 6.27594V4.58333C2.5 3.43274 3.43274 2.5 4.58333 2.5H6.25ZM13.75 3.33333C13.5199 3.33333 13.3333 3.14679 13.3333 2.91667C13.3333 2.68655 13.5199 2.5 13.75 2.5H15.4167C16.5673 2.5 17.5 3.43274 17.5 4.58333V6.25C17.5 6.48012 17.3135 6.66667 17.0833 6.66667C16.8532 6.66667 16.6667 6.48012 16.6667 6.25V4.58333C16.6667 3.89298 16.107 3.33333 15.4167 3.33333H13.75ZM16.6667 13.75C16.6667 13.5199 16.8532 13.3333 17.0833 13.3333C17.3135 13.3333 17.5 13.5199 17.5 13.75V15.4167C17.5 16.5673 16.5673 17.5 15.4167 17.5H13.75C13.5199 17.5 13.3333 17.3135 13.3333 17.0833C13.3333 16.8532 13.5199 16.6667 13.75 16.6667H15.4167C16.107 16.6667 16.6667 16.107 16.6667 15.4167V13.75ZM2.5 13.75C2.5 13.5199 2.68655 13.3333 2.91667 13.3333C3.14679 13.3333 3.33333 13.5199 3.33333 13.75V15.4167C3.33333 16.107 3.89298 16.6667 4.58333 16.6667H6.25C6.48012 16.6667 6.66667 16.8532 6.66667 17.0833C6.66667 17.3135 6.48012 17.5 6.25 17.5H4.58333C3.43274 17.5 2.5 16.5673 2.5 15.4167V13.75ZM6.66667 7.08333C6.66667 6.85321 6.85321 6.66667 7.08333 6.66667C7.31345 6.66667 7.5 6.85321 7.5 7.08333V7.91667C7.5 8.14679 7.31345 8.33333 7.08333 8.33333C6.85321 8.33333 6.66667 8.14679 6.66667 7.91667V7.08333ZM13.3333 7.08333C13.3333 6.85321 13.5199 6.66667 13.75 6.66667C13.9801 6.66667 14.1667 6.85321 14.1667 7.08333V7.91667C14.1667 8.14679 13.9801 8.33333 13.75 8.33333C13.5199 8.33333 13.3333 8.14679 13.3333 7.91667V7.08333ZM10 7.08333C10 6.85321 10.1865 6.66667 10.4167 6.66667C10.6468 6.66667 10.8333 6.85321 10.8333 7.08333V10.4167C10.8333 11.107 10.2737 11.6667 9.58333 11.6667C9.35321 11.6667 9.16667 11.4801 9.16667 11.25C9.16667 11.0199 9.35321 10.8333 9.58333 10.8333C9.81345 10.8333 10 10.6468 10 10.4167V7.08333ZM6.75 13.1667C6.61193 12.9826 6.64924 12.7214 6.83333 12.5833C7.01743 12.4453 7.27859 12.4826 7.41667 12.6667C8.17581 13.6789 9.02948 14.1667 10 14.1667C10.9705 14.1667 11.8242 13.6789 12.5833 12.6667C12.7214 12.4826 12.9826 12.4453 13.1667 12.5833C13.3508 12.7214 13.3881 12.9826 13.25 13.1667C12.3425 14.3767 11.2517 15 10 15C8.7483 15 7.65753 14.3767 6.75 13.1667Z" fill="#61666F"/>
</svg>
