<svg width="139" height="139" viewBox="0 0 139 139" fill="none" xmlns="http://www.w3.org/2000/svg">
<g clip-path="url(#clip0_9_7459)">
<mask id="mask0_9_7459" style="mask-type:luminance" maskUnits="userSpaceOnUse" x="0" y="0" width="139" height="139">
<path d="M0 0H139V139H0V0Z" fill="white"/>
</mask>
<g mask="url(#mask0_9_7459)">
<mask id="mask1_9_7459" style="mask-type:luminance" maskUnits="userSpaceOnUse" x="0" y="0" width="139" height="139">
<path d="M0 0H139V139H0V0Z" fill="white"/>
</mask>
<g mask="url(#mask1_9_7459)">
<path d="M84.735 95.7874V103.432C84.6797 107.023 83.2147 110.447 80.6561 112.967C78.0974 115.486 74.6505 116.899 71.0596 116.899C67.4687 116.899 64.0218 115.486 61.4632 112.967C58.9046 110.447 57.4395 107.023 57.3843 103.432V95.7903" fill="#D2F2FF"/>
<path d="M46.4414 60.688L47.0039 76.8217C47.2121 83.0617 49.843 88.9752 54.3385 93.3078C55.285 94.2209 56.3033 95.0565 57.3836 95.8065C60.0417 97.6421 63.0421 98.9236 66.2061 99.5747C69.37 100.226 72.6326 100.233 75.7995 99.5964C78.9664 98.9596 81.9726 97.6917 84.6389 95.8682C87.3052 94.0446 89.5771 91.7029 91.319 88.9826C93.6481 85.3463 94.9556 81.1503 95.1043 76.8347L95.6151 62.1847C96.2061 58.0922 95.8342 53.9183 94.5289 49.9947C94.1378 48.8439 89.7738 36.1691 80.8714 34.4784C70.8505 32.5648 60.1184 45.5176 50.6858 56.9027C49.6966 58.0955 48.9078 59.1008 48.3842 59.7797" fill="#D2F2FF"/>
<g style="mix-blend-mode:multiply" opacity="0.5">
<path d="M57.6106 93.2303C53.0777 88.8649 50.4246 82.9047 50.2145 76.615C50.0225 71.1908 49.833 65.7665 49.6455 60.3423L51.6077 59.3984C52.1346 58.7163 52.9298 57.7013 53.9255 56.4891C61.6577 47.1599 70.2499 36.7866 78.6222 34.2588C69.2478 34.4527 59.4176 46.3292 50.6864 56.8673C49.6973 58.0601 48.9085 59.0654 48.3848 59.741L46.4453 60.6753L47.0078 76.809C47.1405 80.5608 48.1481 84.2297 49.9502 87.5231C51.7524 90.8164 54.2992 93.6431 57.3875 95.7776V103.419C57.3823 105.989 58.1077 108.507 59.479 110.68C59.4615 106.137 59.4467 101.595 59.4337 97.0545C62.9964 99.022 67.0011 100.051 71.0709 100.045C71.6463 100.045 72.212 100.022 72.7777 99.9832C68.4441 99.6833 64.2712 98.2216 60.6977 95.7517C59.6018 94.9966 58.5694 94.1533 57.6106 93.2303Z" fill="#D2F2FF"/>
</g>
<g style="mix-blend-mode:multiply" opacity="0.5">
<path d="M78.981 38.6066C81.6509 40.3158 84.1322 42.3031 86.3835 44.5351C88.7686 46.9006 90.7214 49.6652 92.1536 52.7037C93.702 56.0042 94.4617 59.2335 95.3248 62.4014C95.4088 62.7053 95.4896 63.0091 95.5769 63.3098L95.6157 62.1784C96.2065 58.0859 95.8346 53.912 94.5296 49.9884C92.0599 42.6731 84.3341 33.0433 80.872 34.4721C80.1091 34.7695 79.2751 35.7199 78.981 38.6066Z" fill="#D2F2FF"/>
</g>
<path d="M46.4937 60.7431L46.4419 60.6881C43.7681 57.5116 41.7716 53.8221 40.5749 49.8461C39.3895 46.008 39.0802 41.9529 39.6697 37.9794C40.0647 35.3502 40.7644 32.7759 41.7547 30.3086C42.5667 28.2608 43.6032 26.3094 44.8451 24.49C45.2481 23.907 45.7646 23.4114 46.3636 23.0327C46.9626 22.654 47.6319 22.4 48.3314 22.286C49.0307 22.1716 49.746 22.1993 50.4344 22.3674C51.1228 22.5356 51.7703 22.8408 52.3381 23.2648L58.7515 27.8389C59.5637 28.4178 60.5136 28.7735 61.5062 28.8705C62.4989 28.9675 63.4996 28.8024 64.4085 28.3917C68.8694 26.3907 77.8689 23.2196 86.6679 25.366C86.6679 25.366 91.2743 26.6202 94.7105 30.3086C95.2675 30.9044 95.7726 31.5468 96.2201 32.2287C98.6413 35.9364 100.025 43.0351 99.5205 49.8461C99.1779 54.4719 97.9657 58.962 95.6156 62.1719C95.2924 61.0534 95.0014 59.9285 94.7428 58.7939C94.0705 55.8846 93.4918 52.9106 92.1988 49.8461C91.0058 47.021 89.3251 44.4278 87.2336 42.185C85.2631 40.0678 83.0731 38.166 80.7006 36.5118C79.8657 38.4737 78.8845 40.3701 77.7654 42.185C76.0556 44.9712 74.0151 47.5403 71.6882 49.8364C65.1306 56.3433 56.4183 60.2252 47.1951 60.7496L46.4646 60.7884" fill="#1E1E1E"/>
<g style="mix-blend-mode:multiply" opacity="0.5">
<path d="M49.6616 60.5236C47.1911 57.1112 45.5326 53.1795 44.8128 49.0286C44.1125 45.0745 44.3024 41.014 45.3688 37.1425C46.0824 34.5814 47.0924 32.1123 48.3783 29.7852C49.4335 27.8586 50.6987 26.0546 52.1507 24.4062C52.3841 24.1452 52.6429 23.908 52.9232 23.6983L52.3382 23.281C51.7702 22.8572 51.1227 22.5522 50.4343 22.3842C49.7459 22.2161 49.0307 22.1884 48.3314 22.3028C47.6321 22.4172 46.963 22.6713 46.364 23.0499C45.765 23.4285 45.2484 23.9238 44.8451 24.5064C43.6032 26.3259 42.5668 28.2773 41.7548 30.325C40.7653 32.7883 40.0657 35.3581 39.6698 37.983C39.0802 41.9564 39.3895 46.0116 40.5749 49.8497C41.7716 53.8256 43.7681 57.5151 46.442 60.6917L46.4937 60.7466L46.4517 60.7919L47.1822 60.7531" fill="#1E1E1E"/>
</g>
<path d="M39.3622 121.26H24.7246C20.8979 121.26 17.7959 118.158 17.7959 114.331V99.6932M17.7959 39.3071V24.6694C17.7959 20.8427 20.8979 17.7407 24.7246 17.7407H39.3622M121.204 39.3753V24.7379C121.204 20.9112 118.102 17.8089 114.275 17.8089H99.6378M99.6378 121.26H114.275C118.102 121.26 121.204 118.158 121.204 114.331V99.6932" stroke="#D2F2FF" stroke-width="2" stroke-linecap="round" stroke-linejoin="round"/>
</g>
</g>
</g>
<defs>
<clipPath id="clip0_9_7459">
<rect width="139" height="139" fill="white"/>
</clipPath>
</defs>
</svg>
