<svg width="24" height="24" viewBox="0 0 24 24" fill="none" xmlns="http://www.w3.org/2000/svg">
<rect width="24" height="24" rx="4" fill="#D6F0D3"/>
<path fill-rule="evenodd" clip-rule="evenodd" d="M12 18C15.3137 18 18 15.3137 18 12C18 8.68629 15.3137 6 12 6C8.68629 6 6 8.68629 6 12C6 15.3137 8.68629 18 12 18ZM14.4503 11.1583C14.7218 10.9096 14.7403 10.4879 14.4916 10.2164C14.243 9.94488 13.8213 9.92636 13.5497 10.175L11.0883 12.4293L10.4503 11.8449C10.1787 11.5962 9.75704 11.6148 9.50837 11.8863C9.25969 12.1578 9.27821 12.5795 9.54973 12.8282L10.6381 13.825C10.8929 14.0583 11.2838 14.0583 11.5386 13.825L14.4503 11.1583Z" fill="#66BE5C"/>
</svg>
