<svg width="12" height="12" viewBox="0 0 12 12" fill="none" xmlns="http://www.w3.org/2000/svg">
<rect width="12" height="12" rx="2" fill="#66BE5C" fill-opacity="0.12"/>
<path fill-rule="evenodd" clip-rule="evenodd" d="M3.31722 5.883C3.24223 5.80798 3.2001 5.70626 3.2001 5.6002C3.2001 5.49413 3.24223 5.39241 3.31722 5.3174L5.71722 2.9174C5.79223 2.84241 5.89395 2.80028 6.00002 2.80028C6.10608 2.80028 6.20781 2.84241 6.28282 2.9174L8.68282 5.3174C8.72102 5.35429 8.75149 5.39843 8.77246 5.44723C8.79342 5.49604 8.80446 5.54852 8.80492 5.60164C8.80538 5.65475 8.79526 5.70742 8.77515 5.75658C8.75503 5.80574 8.72533 5.8504 8.68777 5.88795C8.65022 5.92551 8.60556 5.95521 8.5564 5.97532C8.50724 5.99544 8.45457 6.00556 8.40146 6.0051C8.34834 6.00463 8.29586 5.9936 8.24705 5.97264C8.19825 5.95167 8.15412 5.9212 8.11722 5.883L6.40002 4.1658V8.8002C6.40002 8.90628 6.35787 9.00802 6.28286 9.08304C6.20784 9.15805 6.1061 9.2002 6.00002 9.2002C5.89393 9.2002 5.79219 9.15805 5.71717 9.08304C5.64216 9.00802 5.60002 8.90628 5.60002 8.8002V4.1658L3.88282 5.883C3.80781 5.95798 3.70608 6.00011 3.60002 6.00011C3.49395 6.00011 3.39223 5.95798 3.31722 5.883Z" fill="#66BE5C"/>
</svg>
