<svg width="14" height="18" viewBox="0 0 14 18" fill="none" xmlns="http://www.w3.org/2000/svg">
<path d="M13.0416 7.33229H3.25116V5.45845C3.25116 3.50609 4.83948 1.91777 6.79184 1.91777H7.20852C9.03752 1.91777 10.5465 3.28621 10.7187 5.10089C10.7513 5.44505 11.0566 5.69781 11.401 5.66497C11.7452 5.63233 11.9977 5.32681 11.9651 4.98265C11.8533 3.80405 11.3087 2.71413 10.4316 1.91373C9.54963 1.10897 8.40504 0.665771 7.20852 0.665771H6.79184C4.14916 0.665771 1.99912 2.81577 1.99912 5.45845V7.33229H0.958275C0.612515 7.33229 0.332275 7.61257 0.332275 7.95829V15.0418C0.332275 16.3059 1.3608 17.3344 2.62496 17.3344H11.3749C12.6391 17.3344 13.6676 16.3059 13.6676 15.0418V7.95829C13.6676 7.61257 13.3873 7.33229 13.0416 7.33229ZM12.4156 15.0418C12.4156 15.6156 11.9488 16.0824 11.3749 16.0824H2.62496C2.05112 16.0824 1.58428 15.6156 1.58428 15.0418V8.58429H2.62168C2.62284 8.58429 2.624 8.58445 2.62516 8.58445C2.62632 8.58445 2.62748 8.58429 2.62864 8.58429H12.4156V15.0418Z" fill="#1D2022"/>
</svg>
