<svg width="207" height="76" viewBox="0 0 207 76" fill="none" xmlns="http://www.w3.org/2000/svg">
<g clip-path="url(#clip0_2013_471)">
<path d="M207 66.6884L191.349 76L154.872 54.6082L170.065 45.4094L207 66.6884Z" fill="url(#paint0_linear_2013_471)"/>
<path d="M170.065 3.96996V45.4094L154.872 54.6082V13.1688L170.065 3.96996Z" fill="url(#paint1_linear_2013_471)"/>
<path d="M170.065 3.96996L154.916 13.1688L191.393 34.5605L206.97 25.1845L170.065 3.96996Z" fill="#006794"/>
<path d="M206.97 25.1845L191.393 34.5605L191.349 76L207 66.6884V25.2029L206.97 25.1845Z" fill="#005888"/>
<path opacity="0.7" d="M154.916 13.1688L192.461 33.9161L191.349 76L191.393 34.5605L154.916 13.1688Z" fill="url(#paint2_linear_2013_471)"/>
<path opacity="0.5" d="M206.97 25.1845L192.086 16.6278L170.065 3.96996L167.805 5.36692L192.461 33.9161L204.572 68.0854L207 66.6884L206.97 25.1845Z" fill="url(#paint3_radial_2013_471)"/>
<path opacity="0.3" d="M170.065 3.96996L154.872 13.1688L192.461 33.9161L207 25.2029L170.065 3.96996Z" fill="url(#paint4_linear_2013_471)"/>
<path opacity="0.3" d="M192.461 33.9161L191.349 76L207 66.6884V25.2029L192.461 33.9161Z" fill="url(#paint5_linear_2013_471)"/>
<path opacity="0.3" d="M194.629 18.0524L192.461 33.9161L206.956 39.4856L207 25.2029L194.629 18.0524Z" fill="url(#paint6_linear_2013_471)"/>
<path d="M184.643 16.6186L185.608 17.1778C186.352 17.6082 186.603 18.561 186.172 19.3021C185.742 20.0454 184.788 20.2963 184.046 19.8659L178.957 16.9155C178.209 16.4805 177.25 16.736 176.817 17.4839C176.382 18.2319 176.637 19.1893 177.386 19.622L177.822 19.8751C178.568 20.3078 178.824 21.2652 178.388 22.0108C177.955 22.7565 176.997 23.012 176.25 22.577L156.42 11.0837L153.246 13.201L156.379 0.336007L172.691 -0.00460434L170.309 1.04254L194.811 15.2538C195.56 15.6888 195.813 16.6462 195.38 17.3919C194.945 18.1398 193.986 18.393 193.24 17.9603L186.23 13.8937C185.477 13.4564 184.514 13.7119 184.076 14.4645C183.638 15.217 183.894 16.179 184.647 16.6163L184.643 16.6186Z" fill="url(#paint7_linear_2013_471)"/>
<path d="M181.817 22.0768C181.069 21.6428 180.111 21.8969 179.676 22.6444C179.242 23.3918 179.496 24.3496 180.244 24.7835L182.996 26.3794C183.744 26.8134 184.702 26.5593 185.137 25.8118C185.571 25.0644 185.317 24.1066 184.569 23.6726L181.817 22.0768Z" fill="#2EB9C8"/>
<path d="M188.21 25.7843C187.461 25.3503 186.503 25.6044 186.068 26.3519C185.634 27.0993 185.888 28.0571 186.637 28.4911C187.385 28.925 188.343 28.6709 188.778 27.9235C189.212 27.176 188.958 26.2183 188.21 25.7843Z" fill="#2EB9C8"/>
<path d="M189.939 19.6928C189.195 19.2613 188.242 19.514 187.81 20.257C187.378 21.0001 187.631 21.9522 188.375 22.3836C189.118 22.815 190.071 22.5624 190.503 21.8194C190.935 21.0763 190.682 20.1242 189.939 19.6928Z" fill="#2EB9C8"/>
<path d="M199.39 17.9094C198.646 17.4779 197.693 17.7306 197.261 18.4736C196.83 19.2167 197.082 20.1688 197.826 20.6002C198.57 21.0316 199.523 20.779 199.955 20.036C200.387 19.2929 200.134 18.3408 199.39 17.9094Z" fill="#2EB9C8"/>
<path d="M194.415 22.289C193.671 21.8575 192.718 22.1101 192.286 22.8532C191.854 23.5963 192.107 24.5484 192.851 24.9798C193.595 25.4112 194.548 25.1586 194.98 24.4156C195.412 23.6725 195.159 22.7204 194.415 22.289Z" fill="#2EB9C8"/>
<path d="M56.3459 30.006C56.3459 28.421 55.0597 27.1361 53.4732 27.1361C51.8866 27.1361 50.6005 28.421 50.6005 30.006V30.1119C50.6005 31.6969 51.8866 32.9817 53.4732 32.9817C55.0597 32.9817 56.3459 31.6969 56.3459 30.1119V30.006Z" fill="#080830"/>
<path d="M66.36 30.006C66.36 28.421 65.0738 27.1361 63.4873 27.1361C61.9007 27.1361 60.6146 28.421 60.6146 30.006V30.1119C60.6146 31.6969 61.9007 32.9817 63.4873 32.9817C65.0738 32.9817 66.36 31.6969 66.36 30.1119V30.006Z" fill="#080830"/>
<path d="M58.5067 37.4557C51.4966 37.4557 46.5943 42.459 46.5943 49.6188C46.5943 51.8834 47.1219 53.9892 48.124 55.8855H32.9957C33.2076 54.7808 33.3113 53.7268 33.3113 52.6221V27.9255H27.3563V51.9363C27.3563 59.3607 22.9286 64.9946 16.7086 64.9946C10.4887 64.9946 5.95733 59.2019 5.95733 51.9363V47.46H0V52.6198C0 62.5182 7.53766 70.6285 16.7086 70.6285C22.507 70.6285 27.9345 67.365 30.9408 61.8877H58.509C65.5721 61.8877 70.3154 56.7279 70.3154 49.7775C70.3154 42.8272 65.5191 37.4557 58.509 37.4557H58.5067ZM58.6127 56.4655C55.0811 56.4655 52.6576 53.3586 52.6576 49.5681C52.6576 45.4601 54.9245 42.8272 58.2971 42.8272C61.6697 42.8272 64.2521 45.7754 64.2521 49.7775C64.2521 53.7797 62.0383 56.4655 58.6127 56.4655Z" fill="#080830"/>
<path d="M102.019 27.2926H101.966C100.379 27.2926 99.093 28.5775 99.093 30.1625V30.2684C99.093 31.8533 100.379 33.1382 101.966 33.1382H102.019C103.605 33.1382 104.891 31.8533 104.891 30.2684V30.1625C104.891 28.5775 103.605 27.2926 102.019 27.2926Z" fill="#080830"/>
<path d="M124.473 27.2926H124.42C122.833 27.2926 121.547 28.5775 121.547 30.1625V30.2684C121.547 31.8533 122.833 33.1382 124.42 33.1382H124.473C126.059 33.1382 127.345 31.8533 127.345 30.2684V30.1625C127.345 28.5775 126.059 27.2926 124.473 27.2926Z" fill="#080830"/>
<path d="M121.598 37.9827V50.3575C121.598 52.2539 121.441 53.5174 121.176 54.148C120.598 55.3056 119.384 55.8855 117.435 55.8855H103.627C104.47 54.8844 104.891 52.8845 104.891 49.7775V37.9827H99.0401V50.0928C99.0401 51.9363 98.8304 53.3056 98.4089 54.095C97.7753 55.3056 96.6166 55.8855 94.8773 55.8855H87.8142C85.6004 55.8855 84.073 55.5702 83.2806 54.9903C82.1725 54.2009 81.5943 52.5162 81.5943 49.9363V27.9255H75.7429V52.3068C75.7429 55.202 76.4294 57.4666 77.8508 59.1513C79.3804 60.9947 81.5413 61.89 84.3863 61.89H118.7C124.551 61.89 127.502 58.7301 127.502 52.3597V37.985H121.598V37.9827Z" fill="#080830"/>
<path d="M114.509 27.2926H114.456C112.87 27.2926 111.584 28.5775 111.584 30.1625V30.2684C111.584 31.8533 112.87 33.1382 114.456 33.1382H114.509C116.096 33.1382 117.382 31.8533 117.382 30.2684V30.1625C117.382 28.5775 116.096 27.2926 114.509 27.2926Z" fill="#080830"/>
</g>
<defs>
<linearGradient id="paint0_linear_2013_471" x1="135.864" y1="53.2136" x2="187.275" y2="61.8189" gradientUnits="userSpaceOnUse">
<stop offset="0.35" stop-color="#005888"/>
<stop offset="0.94" stop-color="#1A2854"/>
</linearGradient>
<linearGradient id="paint1_linear_2013_471" x1="153.057" y1="74.5156" x2="165.556" y2="14.3399" gradientUnits="userSpaceOnUse">
<stop offset="0.48" stop-color="#005888"/>
<stop offset="0.95" stop-color="#1A2854"/>
</linearGradient>
<linearGradient id="paint2_linear_2013_471" x1="165.536" y1="48.0676" x2="198.859" y2="32.7567" gradientUnits="userSpaceOnUse">
<stop offset="0.34" stop-color="#0384B2" stop-opacity="0"/>
<stop offset="1" stop-color="#0384B2"/>
</linearGradient>
<radialGradient id="paint3_radial_2013_471" cx="0" cy="0" r="1" gradientUnits="userSpaceOnUse" gradientTransform="translate(207.088 25.4146) scale(36.1356 36.1002)">
<stop offset="0.34" stop-color="#1A2854"/>
<stop offset="0.93" stop-color="#1A2854" stop-opacity="0"/>
</radialGradient>
<linearGradient id="paint4_linear_2013_471" x1="210.039" y1="28.8369" x2="164.785" y2="13.2473" gradientUnits="userSpaceOnUse">
<stop offset="0.4" stop-color="#1A2854"/>
<stop offset="0.81" stop-color="#005888"/>
</linearGradient>
<linearGradient id="paint5_linear_2013_471" x1="202.277" y1="16.8418" x2="197.727" y2="76.7463" gradientUnits="userSpaceOnUse">
<stop offset="0.34" stop-color="#1A2854"/>
<stop offset="1" stop-color="#005888"/>
</linearGradient>
<linearGradient id="paint6_linear_2013_471" x1="201.395" y1="14.5335" x2="199.602" y2="38.151" gradientUnits="userSpaceOnUse">
<stop offset="0.34" stop-color="#1A2854"/>
<stop offset="1" stop-color="#1A2854"/>
</linearGradient>
<linearGradient id="paint7_linear_2013_471" x1="150.36" y1="-0.747295" x2="186.85" y2="20.5993" gradientUnits="userSpaceOnUse">
<stop stop-color="#95D4C9"/>
<stop offset="0.73" stop-color="#2DB9C8"/>
</linearGradient>
<clipPath id="clip0_2013_471">
<rect width="207" height="76" fill="white"/>
</clipPath>
</defs>
</svg>
