<svg width="12" height="12" viewBox="0 0 12 12" fill="none" xmlns="http://www.w3.org/2000/svg">
<mask id="mask0_7_6118" style="mask-type:alpha" maskUnits="userSpaceOnUse" x="1" y="1" width="11" height="11">
<path fill-rule="evenodd" clip-rule="evenodd" d="M1.125 6.125C1.125 3.36357 3.36357 1.125 6.125 1.125C8.8864 1.125 11.125 3.36357 11.125 6.125C11.125 8.8864 8.8864 11.125 6.125 11.125C3.36357 11.125 1.125 8.8864 1.125 6.125ZM4.21997 4.78371C4.21997 3.64369 5.2916 2.75661 6.46925 3.05939C7.0759 3.21472 7.5688 3.7076 7.72425 4.31422C7.9371 5.13935 7.56215 5.91175 6.932 6.29955L6.93115 6.3001C6.6513 6.4715 6.49995 6.72845 6.49995 6.9937C6.49995 7.26985 6.2761 7.4937 5.99995 7.4937C5.72385 7.4937 5.49995 7.26985 5.49995 6.9937C5.49995 6.3192 5.8884 5.7663 6.4083 5.44765C6.68775 5.27545 6.8526 4.93825 6.75585 4.56377L6.75555 4.56262C6.69085 4.30962 6.47405 4.09283 6.22105 4.0281L6.22035 4.02793C5.6881 3.89097 5.21995 4.28383 5.21995 4.78371C5.21995 5.05985 4.99612 5.2837 4.71997 5.2837C4.44383 5.2837 4.21997 5.05985 4.21997 4.78371ZM6.625 8.625C6.625 8.9702 6.3452 9.25 6 9.25C5.6548 9.25 5.375 8.9702 5.375 8.625C5.375 8.2798 5.6548 8 6 8C6.3452 8 6.625 8.2798 6.625 8.625Z" fill="#121331"/>
</mask>
<g mask="url(#mask0_7_6118)">
<path d="M6.125 10.75C8.6793 10.75 10.75 8.6793 10.75 6.125C10.75 3.57068 8.6793 1.5 6.125 1.5C3.57068 1.5 1.5 3.57068 1.5 6.125C1.5 8.6793 3.57068 10.75 6.125 10.75Z" fill="#1E1E1E" stroke="#1E1E1E" stroke-width="1.5" stroke-miterlimit="10"/>
</g>
</svg>
